<svg width="62" height="62" viewBox="0 0 62 62" fill="none" xmlns="http://www.w3.org/2000/svg">
<path d="M27.6694 0.141404C20.7925 0.797654 14.0522 4.01055 9.02098 9.02812C-0.275898 18.2977 -2.64113 32.4617 3.11473 44.2195C6.1909 50.4949 11.0034 55.3074 17.2788 58.3836C24.4702 61.9109 32.7417 62.4578 40.4253 59.9422C48.2593 57.3582 54.6987 51.7254 58.3764 44.2195C64.1323 32.4617 61.7671 18.3387 52.4702 9.02812C45.9214 2.47929 36.9389 -0.733596 27.6694 0.141404ZM45.6889 9.73906C48.1225 11.3113 50.2554 13.2391 51.6362 15.0984C52.4565 16.2195 53.2358 17.7645 53.0854 18.0105C53.0171 18.1063 51.2124 19.282 49.0796 20.6219L45.1968 23.0555L43.9663 21.6063C42.6538 20.0887 40.4526 17.8191 39.9468 17.4773C39.6596 17.2859 39.687 17.2313 41.9975 13.157C43.2964 10.8875 44.3901 9.02812 44.4585 9.02812C44.5132 9.01445 45.06 9.34258 45.6889 9.73906ZM33.6167 20.7176C34.1089 20.8406 35.1479 21.2371 35.9272 21.6199C37.1577 22.2078 37.5132 22.4676 38.5386 23.4793C39.8784 24.8191 40.6714 26.0496 41.1909 27.6082C42.4487 31.3953 41.56 35.4422 38.8257 38.3133C34.7514 42.6063 28.1343 42.825 23.8413 38.7918C19.0151 34.2938 19.4936 26.282 24.7983 22.4813C27.4233 20.6082 30.5132 19.993 33.6167 20.7176ZM18.1675 39.9402C19.1929 41.5125 21.1206 43.577 21.9546 44.0008L22.5288 44.2879L20.5327 47.7332C19.4389 49.6336 18.3589 51.5203 18.1401 51.9031C17.9077 52.2996 17.6479 52.6277 17.5386 52.6277C17.2104 52.6277 15.2827 51.6023 14.2436 50.8641C12.8764 49.8934 11.5093 48.4988 10.5796 47.0906C9.81395 45.9422 8.87059 44.0281 8.87059 43.6043C8.87059 43.4676 9.7866 42.8523 11.2358 41.991C14.3804 40.1453 17.1284 38.5731 17.2104 38.5731C17.2514 38.5731 17.6753 39.1883 18.1675 39.9402Z" fill="black"/>
<path d="M30.062 28.0867C29.1597 28.4969 28.4487 29.3992 28.2163 30.452C27.9839 31.5731 28.8315 33.118 29.98 33.6375C31.2651 34.2254 32.9468 33.7469 33.7944 32.5574C34.7378 31.2449 34.3003 29.2488 32.8784 28.3738C32.0718 27.868 30.8276 27.7449 30.062 28.0867Z" fill="black"/>
</svg>
